<svg width="601" height="191" viewBox="0 0 601 191" fill="none" xmlns="http://www.w3.org/2000/svg">
<circle cx="95.1961" cy="95.1961" r="95.1961" fill="white"/>
<path d="M72.4692 99.8745C73.5258 96.0029 71.7575 94.5316 69.0188 96.0029L49.1579 105.682C48.2505 106.095 47.4645 106.695 46.8638 107.432C46.2631 108.17 45.8647 109.024 45.7008 109.925C45.5369 110.827 45.6122 111.75 45.9207 112.621C46.2291 113.491 46.7619 114.284 47.4758 114.935L59.0776 128.37C59.5476 128.81 60.1434 129.126 60.7999 129.283C61.4565 129.44 62.1484 129.433 62.8004 129.261C63.4523 129.089 64.0392 128.76 64.4969 128.309C64.9547 127.858 65.2657 127.303 65.396 126.705L72.4692 99.8745Z" fill="#333242"/>
<path d="M78.1724 145.38C73.6226 140.591 72.7083 136.603 73.6226 133.398L85.2475 91.8222C86.1282 88.9434 88.1209 86.4215 90.8858 84.6863L112.655 74.3068C113.333 74.0485 114.08 73.9608 114.812 74.0534C115.544 74.1461 116.232 74.4154 116.799 74.8312C117.366 75.2471 117.79 75.7931 118.023 76.4081C118.256 77.0232 118.29 77.6829 118.119 78.3136L96.1975 157.228C96.0413 157.81 95.7015 158.342 95.217 158.762C94.7325 159.183 94.1229 159.475 93.4577 159.607C92.7925 159.738 92.0986 159.703 91.4552 159.505C90.8118 159.307 90.2448 158.954 89.8191 158.488L78.1724 145.38Z" fill="#333242"/>
<path d="M144.996 97.9863C146.075 99.642 146.566 101.548 146.406 103.455C146.245 105.362 145.44 107.181 144.095 108.676L117.329 138.598C116.825 139.175 116.113 139.58 115.312 139.746C114.511 139.912 113.67 139.829 112.93 139.51C112.19 139.19 111.597 138.655 111.25 137.994C110.902 137.332 110.823 136.585 111.023 135.877L126.037 79.6114C126.198 78.9876 126.569 78.4218 127.099 77.9879C127.63 77.554 128.295 77.2724 129.009 77.1799C129.723 77.0873 130.452 77.1882 131.101 77.4694C131.749 77.7505 132.286 78.1988 132.642 78.7554L144.996 97.9863Z" fill="#333242"/>
<path d="M96.35 73.6202C95.7429 73.9256 95.051 74.0633 94.359 74.0167C93.6671 73.97 93.0051 73.7409 92.4541 73.3573C91.9032 72.9738 91.4871 72.4525 91.2569 71.8573C91.0266 71.262 90.9922 70.6186 91.1578 70.0059L96.4141 50.2829L99.1064 40.5671L100.602 36.0202C100.697 35.7176 100.887 35.4468 101.148 35.2412C101.41 35.0355 101.732 34.9039 102.075 34.8626C102.418 34.8213 102.767 34.8721 103.078 35.0087C103.39 35.1453 103.651 35.3618 103.828 35.6315L118.785 58.7745C119.023 59.1511 119.176 59.567 119.235 59.9979C119.294 60.4289 119.257 60.8661 119.128 61.2841C118.998 61.7021 118.779 62.0925 118.481 62.4323C118.184 62.7721 117.815 63.0546 117.397 63.2632L96.35 73.6202Z" fill="#333242"/>
<path d="M52.4266 95.0555L74.8799 84.2417C76.2186 83.5991 77.3888 82.7055 78.3113 81.6211C79.2339 80.5368 79.8874 79.287 80.2279 77.956L92.0488 31.9878C92.1758 31.4325 92.0811 30.8546 91.7813 30.356C91.4815 29.8574 90.9958 29.4701 90.4098 29.2623C89.8239 29.0544 89.1752 29.0395 88.5782 29.22C87.9812 29.4006 87.4742 29.7651 87.1464 30.2492L74.6889 49.3548L65.7967 63.7987L47.694 90.5657C47.2905 91.1674 47.1175 91.8718 47.2017 92.5706C47.2859 93.2695 47.6226 93.9241 48.16 94.434C48.6975 94.9439 49.406 95.2808 50.1768 95.3931C50.9476 95.5054 51.738 95.3868 52.4266 95.0555V95.0555Z" fill="#333242"/>
<path d="M255.086 143C245.638 143 237.735 140.978 231.377 136.934C225.108 132.802 220.649 127.22 218 120.187L236.278 109.637C239.987 118.165 246.477 122.429 255.748 122.429C264.137 122.429 268.331 119.923 268.331 114.912C268.331 112.187 266.962 110.077 264.225 108.582C261.576 107 256.543 105.198 249.126 103.176C245.24 102.121 241.841 100.934 238.927 99.6154C236.013 98.2967 233.143 96.5824 230.318 94.4725C227.581 92.2747 225.461 89.5495 223.96 86.2967C222.547 83.044 221.841 79.3077 221.841 75.0879C221.841 66.5604 224.887 59.7473 230.98 54.6484C237.161 49.5495 244.49 47 252.967 47C260.56 47 267.271 48.8022 273.099 52.4066C278.927 55.9231 283.518 61.0659 286.874 67.8352L268.993 78.2527C267.315 74.7363 265.24 72.0989 262.768 70.3407C260.295 68.4945 257.028 67.5714 252.967 67.5714C249.788 67.5714 247.315 68.2747 245.549 69.6813C243.872 71 243.033 72.6264 243.033 74.5604C243.033 76.8462 244.093 78.8242 246.212 80.4945C248.419 82.1648 252.922 84.011 259.722 86.033C263.43 87.1758 266.3 88.0989 268.331 88.8022C270.362 89.5055 272.922 90.6923 276.013 92.3626C279.192 93.9451 281.576 95.6593 283.165 97.5055C284.843 99.2637 286.3 101.637 287.536 104.626C288.86 107.527 289.523 110.868 289.523 114.648C289.523 123.44 286.344 130.385 279.986 135.484C273.629 140.495 265.329 143 255.086 143Z" fill="white"/>
<path d="M348.146 75.2198H368.013V141.154H348.146V134.956C343.466 140.319 336.888 143 328.411 143C319.669 143 312.208 139.659 306.027 132.978C299.846 126.209 296.756 117.945 296.756 108.187C296.756 98.4286 299.846 90.2088 306.027 83.5275C312.208 76.7582 319.669 73.3736 328.411 73.3736C336.888 73.3736 343.466 76.0549 348.146 81.4176V75.2198ZM320.994 119.923C323.908 122.824 327.705 124.275 332.384 124.275C337.064 124.275 340.861 122.824 343.775 119.923C346.689 117.022 348.146 113.11 348.146 108.187C348.146 103.264 346.689 99.3516 343.775 96.4505C340.861 93.5494 337.064 92.0989 332.384 92.0989C327.705 92.0989 323.908 93.5494 320.994 96.4505C318.08 99.3516 316.623 103.264 316.623 108.187C316.623 113.11 318.08 117.022 320.994 119.923Z" fill="white"/>
<path d="M420.072 73.3736C427.136 73.3736 433.008 75.7912 437.688 80.6264C442.456 85.4615 444.84 92.1429 444.84 100.67V141.154H424.973V103.571C424.973 99.7033 423.869 96.7582 421.662 94.7363C419.542 92.6264 416.805 91.5714 413.45 91.5714C409.653 91.5714 406.651 92.7143 404.443 95C402.236 97.2857 401.132 100.67 401.132 105.154V141.154H381.264V48.8462H401.132V81.4176C405.105 76.0549 411.419 73.3736 420.072 73.3736Z" fill="white"/>
<path d="M495.967 73.3736C503.031 73.3736 508.903 75.7912 513.582 80.6264C518.351 85.4615 520.735 92.1429 520.735 100.67V141.154H500.867V103.571C500.867 99.7033 499.763 96.7582 497.556 94.7363C495.437 92.6264 492.7 91.5714 489.344 91.5714C485.547 91.5714 482.545 92.7143 480.338 95C478.13 97.2857 477.026 100.67 477.026 105.154V141.154H457.159V48.8462H477.026V81.4176C481 76.0549 487.313 73.3736 495.967 73.3736Z" fill="white"/>
<path d="M581.133 75.2198H601V141.154H581.133V134.956C576.453 140.319 569.874 143 561.398 143C552.656 143 545.195 139.659 539.014 132.978C532.833 126.209 529.742 117.945 529.742 108.187C529.742 98.4286 532.833 90.2088 539.014 83.5275C545.195 76.7582 552.656 73.3736 561.398 73.3736C569.874 73.3736 576.453 76.0549 581.133 81.4176V75.2198ZM553.98 119.923C556.894 122.824 560.691 124.275 565.371 124.275C570.051 124.275 573.848 122.824 576.762 119.923C579.676 117.022 581.133 113.11 581.133 108.187C581.133 103.264 579.676 99.3516 576.762 96.4505C573.848 93.5494 570.051 92.0989 565.371 92.0989C560.691 92.0989 556.894 93.5494 553.98 96.4505C551.067 99.3516 549.61 103.264 549.61 108.187C549.61 113.11 551.067 117.022 553.98 119.923Z" fill="white"/>
</svg>
