<svg width="261" height="86" fill="none" xmlns="http://www.w3.org/2000/svg"><path d="M125.117 59.435c-3.711 0-6.815-.8-9.313-2.4-2.462-1.635-4.214-3.844-5.255-6.627l7.18-4.174c1.457 3.374 4.007 5.061 7.649 5.061 3.295 0 4.942-.99 4.942-2.974 0-1.078-.537-1.913-1.613-2.504-1.04-.626-3.017-1.34-5.931-2.14-1.526-.417-2.862-.886-4.006-1.408a18.18 18.18 0 01-3.382-2.035 8.82 8.82 0 01-2.497-3.235c-.555-1.287-.833-2.766-.833-4.435 0-3.375 1.197-6.07 3.59-8.088 2.428-2.017 5.307-3.026 8.637-3.026 2.983 0 5.619.713 7.908 2.14 2.29 1.39 4.093 3.425 5.411 6.104l-7.024 4.122c-.659-1.391-1.474-2.435-2.445-3.13-.971-.731-2.255-1.096-3.85-1.096-1.249 0-2.22.278-2.914.834-.659.522-.988 1.166-.988 1.931 0 .904.416 1.687 1.248 2.348.868.66 2.637 1.391 5.307 2.191 1.457.453 2.585.818 3.382 1.096.798.279 1.804.748 3.018 1.409 1.249.626 2.185 1.304 2.81 2.035.659.696 1.231 1.635 1.716 2.818.521 1.147.781 2.47.781 3.965 0 3.479-1.249 6.227-3.746 8.244-2.498 1.983-5.758 2.974-9.782 2.974zM161.673 32.616h7.805v26.089h-7.805v-2.453c-1.838 2.122-4.422 3.183-7.752 3.183-3.434 0-6.365-1.322-8.793-3.965-2.428-2.679-3.642-5.948-3.642-9.81 0-3.86 1.214-7.113 3.642-9.757 2.428-2.678 5.359-4.018 8.793-4.018 3.33 0 5.914 1.061 7.752 3.183v-2.452zm-10.666 17.688c1.145 1.148 2.637 1.722 4.475 1.722 1.838 0 3.33-.574 4.474-1.722 1.145-1.148 1.717-2.696 1.717-4.644s-.572-3.496-1.717-4.643c-1.144-1.148-2.636-1.722-4.474-1.722s-3.33.574-4.475 1.721c-1.144 1.148-1.716 2.696-1.716 4.644s.572 3.496 1.716 4.644zM189.928 31.885c2.774 0 5.081.957 6.919 2.87 1.874 1.913 2.81 4.557 2.81 7.931v16.019h-7.804v-14.87c0-1.531-.434-2.697-1.301-3.497-.833-.835-1.908-1.252-3.226-1.252-1.491 0-2.671.452-3.538 1.357-.867.904-1.301 2.243-1.301 4.017v14.245h-7.804V22.18h7.804v12.888c1.561-2.122 4.041-3.183 7.441-3.183zM219.741 31.885c2.774 0 5.081.957 6.919 2.87 1.874 1.913 2.81 4.557 2.81 7.931v16.019h-7.804v-14.87c0-1.531-.434-2.697-1.301-3.497-.833-.835-1.908-1.252-3.226-1.252-1.491 0-2.671.452-3.538 1.357-.867.904-1.301 2.243-1.301 4.017v14.245h-7.804V22.18h7.804v12.888c1.561-2.122 4.041-3.183 7.441-3.183zM253.196 32.616H261v26.089h-7.804v-2.453c-1.839 2.122-4.423 3.183-7.753 3.183-3.434 0-6.365-1.322-8.793-3.965-2.428-2.679-3.642-5.948-3.642-9.81 0-3.86 1.214-7.113 3.642-9.757 2.428-2.678 5.359-4.018 8.793-4.018 3.33 0 5.914 1.061 7.753 3.183v-2.452zM242.53 50.304c1.144 1.148 2.636 1.722 4.474 1.722 1.839 0 3.33-.574 4.475-1.722 1.144-1.148 1.717-2.696 1.717-4.644s-.573-3.496-1.717-4.643c-1.145-1.148-2.636-1.722-4.475-1.722-1.838 0-3.33.574-4.474 1.721-1.145 1.148-1.717 2.696-1.717 4.644s.572 3.496 1.717 4.644z" fill="#fff"/><path fill-rule="evenodd" clip-rule="evenodd" d="M43.147 86c23.83 0 43.147-19.252 43.147-43S66.976 0 43.147 0C19.317 0 0 19.252 0 43s19.317 43 43.147 43zM32.003 43.857c1.194-.643 1.964 0 1.504 1.692L30.424 57.27a1.408 1.408 0 01-.392.701c-.2.197-.456.341-.74.416a1.79 1.79 0 01-.872.01 1.66 1.66 0 01-.75-.4l-5.058-5.87a2.505 2.505 0 01-.678-1.01 2.294 2.294 0 01-.096-1.178 2.41 2.41 0 01.508-1.09 2.762 2.762 0 011-.764l8.657-4.229zm3.989 21.572c-1.983-2.092-2.382-3.835-1.983-5.235l5.067-18.165c.384-1.258 1.252-2.36 2.458-3.118l9.489-4.535c.296-.113.621-.151.94-.11.32.04.619.158.866.34.247.181.432.42.534.688.102.269.116.557.042.833l-9.556 34.48a1.357 1.357 0 01-.427.67 1.657 1.657 0 01-.767.368c-.29.058-.593.042-.873-.044a1.598 1.598 0 01-.713-.445l-5.077-5.727zm29.743-18.317a3.787 3.787 0 00-.614-2.389l-5.385-8.402a1.502 1.502 0 00-.672-.562 1.735 1.735 0 00-.912-.127c-.311.04-.602.164-.833.354-.231.189-.392.436-.463.709l-6.544 24.583c-.088.31-.053.636.099.925.151.29.41.523.732.662.323.14.69.176 1.038.104.35-.073.66-.25.88-.502l11.667-13.073a3.906 3.906 0 001.007-2.282zM43.917 34.077a1.682 1.682 0 01-1.699-.114 1.431 1.431 0 01-.521-.656c-.1-.26-.116-.54-.044-.809l2.292-8.617 1.173-4.245.652-1.987a.701.701 0 01.238-.34.839.839 0 01.841-.102c.136.06.25.155.328.273l6.52 10.111c.103.165.17.346.195.535.026.188.01.379-.047.562a1.386 1.386 0 01-.281.501 1.54 1.54 0 01-.473.363l-9.174 4.526zm-9.358 4.641l-9.788 4.725c-.3.145-.644.197-.98.148a1.613 1.613 0 01-.88-.42 1.347 1.347 0 01-.417-.814 1.292 1.292 0 01.215-.876l7.89-11.695 3.876-6.31 5.43-8.348c.143-.212.364-.37.625-.45.26-.079.543-.072.798.019.255.09.467.26.598.478.13.217.172.47.116.713L36.89 35.972a4.009 4.009 0 01-.836 1.601 4.54 4.54 0 01-1.495 1.145z" fill="#fff"/></svg>