<svg width="136" height="137" viewBox="0 0 136 137" fill="none" xmlns="http://www.w3.org/2000/svg">
<path fill-rule="evenodd" clip-rule="evenodd" d="M67.8044 136.391C105.252 136.391 135.609 105.859 135.609 68.1951C135.609 30.5315 105.252 -0.000976562 67.8044 -0.000976562C30.3569 -0.000976562 -0.000244141 30.5315 -0.000244141 68.1951C-0.000244141 105.859 30.3569 136.391 67.8044 136.391ZM49.1592 68.7735C51.1099 67.7195 52.3694 68.7735 51.6168 71.547L46.5788 90.7675C46.486 91.1964 46.2645 91.5939 45.9384 91.9168C45.6124 92.2398 45.1944 92.4756 44.73 92.5987C44.2657 92.7217 43.7728 92.7273 43.3052 92.6147C42.8376 92.5021 42.4132 92.2757 42.0784 91.9602L33.8149 82.336C33.3064 81.8697 32.9269 81.3017 32.7072 80.6781C32.4876 80.0545 32.4339 79.393 32.5506 78.7471C32.6674 78.1013 32.9512 77.4894 33.379 76.9612C33.8069 76.4331 34.3667 76.0034 35.013 75.7073L49.1592 68.7735ZM55.679 104.145C52.4383 100.714 51.7871 97.8576 52.4383 95.5613L60.7183 65.7778C61.3456 63.7155 62.7649 61.9089 64.7342 60.6658L80.2398 53.2302C80.7229 53.0452 81.2548 52.9824 81.7761 53.0487C82.2974 53.1151 82.7874 53.308 83.1913 53.6059C83.5953 53.9039 83.8972 54.295 84.0633 54.7356C84.2294 55.1762 84.2531 55.6488 84.1317 56.1006L68.5176 112.633C68.4063 113.05 68.1643 113.431 67.8192 113.732C67.4741 114.033 67.0399 114.243 66.5661 114.337C66.0923 114.431 65.5981 114.406 65.1398 114.264C64.6815 114.122 64.2777 113.87 63.9745 113.535L55.679 104.145ZM104.279 74.111C104.393 72.7449 104.044 71.3797 103.275 70.1936L94.476 56.4171C94.2223 56.0183 93.8395 55.6972 93.3778 55.4958C92.9161 55.2944 92.3969 55.2221 91.8884 55.2884C91.3798 55.3547 90.9055 55.5565 90.5277 55.8673C90.1498 56.1781 89.8861 56.5835 89.7709 57.0303L79.0776 97.3379C78.9345 97.8448 78.9914 98.3801 79.2388 98.854C79.4861 99.3278 79.9087 99.7113 80.4356 99.9399C80.9626 100.169 81.5617 100.228 82.1322 100.109C82.7028 99.9904 83.2101 99.6999 83.5688 99.2866L102.633 77.8518C103.591 76.7808 104.165 75.4772 104.279 74.111ZM68.6262 52.739C68.1937 52.9578 67.7009 53.0565 67.2081 53.0231C66.7152 52.9897 66.2437 52.8255 65.8513 52.5508C65.4588 52.276 65.1625 51.9026 64.9985 51.4762C64.8345 51.0497 64.81 50.5888 64.928 50.1499L68.6718 36.0208L70.5894 29.0607L71.6548 25.8033C71.7222 25.5866 71.8574 25.3926 72.0438 25.2453C72.2302 25.0979 72.4596 25.0037 72.7039 24.9741C72.9481 24.9445 73.1964 24.9809 73.4184 25.0788C73.6403 25.1766 73.826 25.3317 73.9528 25.5249L84.6061 42.104C84.7754 42.3737 84.8842 42.6717 84.9261 42.9804C84.968 43.2891 84.9421 43.6024 84.85 43.9018C84.7579 44.2013 84.6013 44.4809 84.3896 44.7243C84.1779 44.9678 83.9151 45.1701 83.6169 45.3195L68.6262 52.739ZM53.3338 60.3481L37.3412 68.0948C36.8507 68.3321 36.2877 68.4171 35.7387 68.3367C35.1897 68.2562 34.685 68.0148 34.3022 67.6496C33.9194 67.2843 33.6796 66.8153 33.6196 66.3147C33.5597 65.8141 33.6829 65.3095 33.9703 64.8784L46.8642 45.7032L53.1977 35.356L62.0708 21.6692C62.3042 21.3223 62.6654 21.0613 63.0906 20.9319C63.5158 20.8026 63.9778 20.8133 64.3952 20.9622C64.8126 21.111 65.1585 21.3885 65.372 21.7457C65.5856 22.1029 65.6531 22.5169 65.5625 22.9147L57.143 55.8451C56.9005 56.7986 56.435 57.694 55.7779 58.4708C55.1208 59.2475 54.2873 59.8877 53.3338 60.3481Z" fill="#333242"/>
</svg>
