<svg width="87" height="86" viewBox="0 0 87 86" fill="none" xmlns="http://www.w3.org/2000/svg">
<path fill-rule="evenodd" clip-rule="evenodd" d="M43.1468 86C66.9761 86 86.2936 66.7483 86.2936 43C86.2936 19.2517 66.9761 0 43.1468 0C19.3175 0 0 19.2517 0 43C0 66.7483 19.3175 86 43.1468 86ZM32.0027 43.8571C33.1965 43.2142 33.9673 43.8571 33.5067 45.5486L30.4236 57.2714C30.3667 57.5328 30.2312 57.7753 30.0317 57.9723C29.8321 58.1692 29.5763 58.3131 29.2921 58.3881C29.008 58.4631 28.7063 58.4666 28.4202 58.3978C28.134 58.3292 27.8743 58.1912 27.6694 57.9987L22.6123 52.1289C22.3011 51.8445 22.0688 51.498 21.9344 51.1178C21.7999 50.7374 21.7671 50.3339 21.8385 49.9401C21.91 49.5461 22.0836 49.173 22.3455 48.8508C22.6073 48.5287 22.9499 48.2666 23.3455 48.0861L32.0027 43.8571ZM35.992 65.4293C34.0088 63.3368 33.6102 61.5945 34.0088 60.194L39.076 42.0289C39.4599 40.7711 40.3285 39.6693 41.5337 38.9111L51.0229 34.3761C51.3186 34.2633 51.6441 34.225 51.9631 34.2654C52.2821 34.3059 52.582 34.4236 52.8292 34.6052C53.0764 34.787 53.2612 35.0255 53.3628 35.2943C53.4645 35.563 53.479 35.8512 53.4047 36.1268L43.8491 70.6062C43.781 70.8604 43.6329 71.0925 43.4217 71.2762C43.2105 71.4601 42.9448 71.5879 42.6548 71.6453C42.3649 71.7026 42.0624 71.6873 41.7819 71.6008C41.5015 71.5143 41.2543 71.3604 41.0688 71.1564L35.992 65.4293ZM65.7349 47.1123C65.805 46.2792 65.5908 45.4465 65.1205 44.7231L59.7356 36.3208C59.5803 36.0775 59.3461 35.8817 59.0635 35.7589C58.7809 35.636 58.4632 35.5919 58.152 35.6323C57.8408 35.6727 57.5505 35.7959 57.3193 35.9855C57.088 36.1749 56.9266 36.4222 56.8561 36.6947L50.312 61.2784C50.2244 61.5876 50.2593 61.9142 50.4106 62.2031C50.562 62.4922 50.8206 62.726 51.1431 62.8655C51.4656 63.0049 51.8322 63.0414 52.1814 62.9688C52.5306 62.8962 52.841 62.719 53.0605 62.4669L64.7278 49.3938C65.3139 48.7406 65.6649 47.9456 65.7349 47.1123ZM43.9167 34.0775C43.652 34.2109 43.3504 34.2711 43.0488 34.2507C42.7472 34.2303 42.4586 34.1302 42.2185 33.9626C41.9783 33.7952 41.797 33.5674 41.6966 33.3073C41.5962 33.0472 41.5812 32.7661 41.6534 32.4984L43.9446 23.881L45.1181 19.636L45.7701 17.6493C45.8114 17.5172 45.8941 17.3988 46.0082 17.309C46.1223 17.2191 46.2627 17.1616 46.4122 17.1436C46.5616 17.1255 46.7136 17.1477 46.8494 17.2074C46.9852 17.2671 47.0989 17.3617 47.1765 17.4795L53.6961 27.5912C53.7998 27.7557 53.8663 27.9374 53.892 28.1257C53.9176 28.314 53.9018 28.505 53.8454 28.6876C53.789 28.8702 53.6932 29.0409 53.5637 29.1893C53.4341 29.3378 53.2733 29.4612 53.0907 29.5524L43.9167 34.0775ZM34.5586 38.7184L24.7714 43.4431C24.4712 43.5878 24.1266 43.6396 23.7907 43.5906C23.4547 43.5415 23.1458 43.3943 22.9116 43.1715C22.6773 42.9487 22.5305 42.6627 22.4939 42.3574C22.4572 42.0521 22.5325 41.7443 22.7085 41.4814L30.5993 29.7864L34.4753 23.4756L39.9055 15.1279C40.0484 14.9164 40.2694 14.7572 40.5296 14.6783C40.7899 14.5994 41.0726 14.606 41.328 14.6968C41.5835 14.7876 41.7952 14.9568 41.9258 15.1747C42.0565 15.3925 42.0978 15.645 42.0424 15.8876L36.8898 35.9719C36.7414 36.5535 36.4565 37.0996 36.0544 37.5734C35.6522 38.0471 35.1422 38.4375 34.5586 38.7184Z" fill="white"/>
</svg>
