<svg width="800" height="400" viewBox="0 0 800 400" fill="none" xmlns="http://www.w3.org/2000/svg">
<rect width="800" height="400" fill="white"/>
<circle cx="195.196" cy="200.196" r="95.1961" fill="#333242"/>
<path d="M172.469 204.874C173.526 201.003 171.757 199.532 169.019 201.003L149.158 210.682C148.25 211.095 147.464 211.695 146.864 212.432C146.263 213.17 145.865 214.024 145.701 214.925C145.537 215.827 145.612 216.75 145.921 217.621C146.229 218.491 146.762 219.284 147.476 219.935L159.077 233.37C159.548 233.81 160.143 234.126 160.8 234.283C161.456 234.44 162.148 234.433 162.8 234.261C163.452 234.089 164.039 233.76 164.497 233.309C164.955 232.858 165.266 232.303 165.396 231.705L172.469 204.874Z" fill="#FDB590"/>
<path d="M178.172 250.38C173.622 245.591 172.708 241.603 173.622 238.398L185.247 196.822C186.128 193.943 188.121 191.421 190.886 189.686L212.655 179.307C213.333 179.049 214.08 178.961 214.812 179.053C215.544 179.146 216.232 179.415 216.799 179.831C217.366 180.247 217.79 180.793 218.023 181.408C218.256 182.023 218.29 182.683 218.119 183.314L196.197 262.228C196.041 262.81 195.701 263.342 195.217 263.762C194.732 264.183 194.123 264.475 193.457 264.607C192.792 264.738 192.098 264.703 191.455 264.505C190.812 264.307 190.245 263.955 189.819 263.488L178.172 250.38Z" fill="#EBEB4A"/>
<path d="M244.996 202.986C246.075 204.642 246.566 206.548 246.406 208.455C246.245 210.362 245.44 212.181 244.095 213.676L217.329 243.598C216.825 244.175 216.113 244.58 215.312 244.746C214.511 244.912 213.67 244.829 212.93 244.51C212.19 244.19 211.597 243.655 211.25 242.994C210.902 242.332 210.823 241.585 211.023 240.877L226.037 184.611C226.198 183.988 226.569 183.422 227.099 182.988C227.63 182.554 228.295 182.272 229.009 182.18C229.723 182.087 230.452 182.188 231.101 182.469C231.749 182.751 232.286 183.199 232.642 183.755L244.996 202.986Z" fill="#E8E1FE"/>
<path d="M196.35 178.62C195.743 178.926 195.051 179.063 194.359 179.017C193.667 178.97 193.005 178.741 192.454 178.357C191.903 177.974 191.487 177.453 191.257 176.857C191.027 176.262 190.992 175.619 191.158 175.006L196.414 155.283L199.106 145.567L200.602 141.02C200.697 140.718 200.887 140.447 201.148 140.241C201.41 140.035 201.732 139.904 202.075 139.863C202.418 139.821 202.767 139.872 203.078 140.009C203.39 140.145 203.651 140.362 203.828 140.632L218.785 163.774C219.023 164.151 219.176 164.567 219.235 164.998C219.294 165.429 219.257 165.866 219.128 166.284C218.998 166.702 218.779 167.092 218.481 167.432C218.184 167.772 217.815 168.055 217.397 168.263L196.35 178.62Z" fill="#94E2BF"/>
<path d="M152.426 200.055L174.88 189.242C176.218 188.599 177.389 187.705 178.311 186.621C179.234 185.537 179.887 184.287 180.228 182.956L192.049 136.988C192.176 136.433 192.081 135.855 191.781 135.356C191.481 134.857 190.996 134.47 190.41 134.262C189.824 134.054 189.175 134.039 188.578 134.22C187.981 134.401 187.474 134.765 187.146 135.249L174.689 154.355L165.796 168.799L147.694 195.566C147.29 196.167 147.117 196.872 147.201 197.571C147.286 198.269 147.622 198.924 148.16 199.434C148.697 199.944 149.406 200.281 150.177 200.393C150.947 200.505 151.738 200.387 152.426 200.055V200.055Z" fill="#5DE8E8"/>
<path d="M355.086 248C345.638 248 337.735 245.978 331.377 241.934C325.108 237.802 320.649 232.22 318 225.187L336.278 214.637C339.987 223.165 346.477 227.429 355.748 227.429C364.137 227.429 368.331 224.923 368.331 219.912C368.331 217.187 366.962 215.077 364.225 213.582C361.576 212 356.543 210.198 349.126 208.176C345.24 207.121 341.841 205.934 338.927 204.615C336.013 203.297 333.143 201.582 330.318 199.473C327.581 197.275 325.461 194.549 323.96 191.297C322.547 188.044 321.841 184.308 321.841 180.088C321.841 171.56 324.887 164.747 330.98 159.648C337.161 154.549 344.49 152 352.967 152C360.56 152 367.271 153.802 373.099 157.407C378.927 160.923 383.518 166.066 386.874 172.835L368.993 183.253C367.315 179.736 365.24 177.099 362.768 175.341C360.295 173.495 357.028 172.571 352.967 172.571C349.788 172.571 347.315 173.275 345.549 174.681C343.872 176 343.033 177.626 343.033 179.56C343.033 181.846 344.093 183.824 346.212 185.495C348.419 187.165 352.922 189.011 359.722 191.033C363.43 192.176 366.3 193.099 368.331 193.802C370.362 194.505 372.922 195.692 376.013 197.363C379.192 198.945 381.576 200.659 383.165 202.505C384.843 204.264 386.3 206.637 387.536 209.626C388.86 212.527 389.523 215.868 389.523 219.648C389.523 228.44 386.344 235.385 379.986 240.484C373.629 245.495 365.329 248 355.086 248Z" fill="#333242"/>
<path d="M448.146 180.22H468.013V246.154H448.146V239.956C443.466 245.319 436.888 248 428.411 248C419.669 248 412.208 244.659 406.027 237.978C399.846 231.209 396.756 222.945 396.756 213.187C396.756 203.429 399.846 195.209 406.027 188.527C412.208 181.758 419.669 178.374 428.411 178.374C436.888 178.374 443.466 181.055 448.146 186.418V180.22ZM420.994 224.923C423.908 227.824 427.705 229.275 432.384 229.275C437.064 229.275 440.861 227.824 443.775 224.923C446.689 222.022 448.146 218.11 448.146 213.187C448.146 208.264 446.689 204.352 443.775 201.451C440.861 198.549 437.064 197.099 432.384 197.099C427.705 197.099 423.908 198.549 420.994 201.451C418.08 204.352 416.623 208.264 416.623 213.187C416.623 218.11 418.08 222.022 420.994 224.923Z" fill="#333242"/>
<path d="M520.072 178.374C527.136 178.374 533.008 180.791 537.688 185.626C542.456 190.462 544.84 197.143 544.84 205.67V246.154H524.973V208.571C524.973 204.703 523.869 201.758 521.662 199.736C519.542 197.626 516.805 196.571 513.45 196.571C509.653 196.571 506.651 197.714 504.443 200C502.236 202.286 501.132 205.67 501.132 210.154V246.154H481.264V153.846H501.132V186.418C505.105 181.055 511.419 178.374 520.072 178.374Z" fill="#333242"/>
<path d="M595.967 178.374C603.031 178.374 608.903 180.791 613.582 185.626C618.351 190.462 620.735 197.143 620.735 205.67V246.154H600.867V208.571C600.867 204.703 599.763 201.758 597.556 199.736C595.437 197.626 592.7 196.571 589.344 196.571C585.547 196.571 582.545 197.714 580.338 200C578.13 202.286 577.026 205.67 577.026 210.154V246.154H557.159V153.846H577.026V186.418C581 181.055 587.313 178.374 595.967 178.374Z" fill="#333242"/>
<path d="M681.133 180.22H701V246.154H681.133V239.956C676.453 245.319 669.874 248 661.398 248C652.656 248 645.195 244.659 639.014 237.978C632.833 231.209 629.742 222.945 629.742 213.187C629.742 203.429 632.833 195.209 639.014 188.527C645.195 181.758 652.656 178.374 661.398 178.374C669.874 178.374 676.453 181.055 681.133 186.418V180.22ZM653.98 224.923C656.894 227.824 660.691 229.275 665.371 229.275C670.051 229.275 673.848 227.824 676.762 224.923C679.676 222.022 681.133 218.11 681.133 213.187C681.133 208.264 679.676 204.352 676.762 201.451C673.848 198.549 670.051 197.099 665.371 197.099C660.691 197.099 656.894 198.549 653.98 201.451C651.067 204.352 649.61 208.264 649.61 213.187C649.61 218.11 651.067 222.022 653.98 224.923Z" fill="#333242"/>
</svg>
